<?xml version="1.0" encoding="UTF-8" standalone="no"?>
<!-- Created with Inkscape (http://www.inkscape.org/) -->

<svg
   xmlns:dc="http://purl.org/dc/elements/1.1/"
   xmlns:cc="http://creativecommons.org/ns#"
   xmlns:rdf="http://www.w3.org/1999/02/22-rdf-syntax-ns#"
   xmlns:svg="http://www.w3.org/2000/svg"
   xmlns="http://www.w3.org/2000/svg"
   xmlns:sodipodi="http://sodipodi.sourceforge.net/DTD/sodipodi-0.dtd"
   xmlns:inkscape="http://www.inkscape.org/namespaces/inkscape"
   width="256px"
   height="256px"
   viewBox="0 0 256 256"
   version="1.1"
   id="SVGRoot"
   inkscape:version="0.92.5 (2060ec1f9f, 2020-04-08)"
   sodipodi:docname="ide65xx.svg"
   inkscape:export-filename="C:\Users\dtema\YandexDisk\Qt-Works\IDE65xx\icon\ide65xx.png"
   inkscape:export-xdpi="48"
   inkscape:export-ydpi="48">
  <title
     id="title1490">IDE65XX</title>
  <defs
     id="defs927">
    <inkscape:path-effect
       effect="bspline"
       id="path-effect921"
       is_visible="true"
       weight="33.333333"
       steps="2"
       helper_size="0"
       apply_no_weight="true"
       apply_with_weight="true"
       only_selected="false" />
    <inkscape:path-effect
       effect="bspline"
       id="path-effect850"
       is_visible="true"
       weight="33.333333"
       steps="2"
       helper_size="0"
       apply_no_weight="true"
       apply_with_weight="true"
       only_selected="false" />
    <inkscape:path-effect
       effect="bspline"
       id="path-effect824"
       is_visible="true"
       weight="33.333333"
       steps="2"
       helper_size="0"
       apply_no_weight="true"
       apply_with_weight="true"
       only_selected="false" />
  </defs>
  <sodipodi:namedview
     id="base"
     pagecolor="#ffffff"
     bordercolor="#666666"
     borderopacity="1.0"
     inkscape:pageopacity="0.0"
     inkscape:pageshadow="2"
     inkscape:zoom="1.4142136"
     inkscape:cx="-224.82072"
     inkscape:cy="115.72562"
     inkscape:document-units="px"
     inkscape:current-layer="layer3"
     showgrid="false"
     inkscape:window-width="1920"
     inkscape:window-height="1017"
     inkscape:window-x="-8"
     inkscape:window-y="-8"
     inkscape:window-maximized="1"
     inkscape:grid-bbox="true"
     showguides="false">
    <inkscape:grid
       type="xygrid"
       id="grid1486" />
  </sodipodi:namedview>
  <metadata
     id="metadata930">
    <rdf:RDF>
      <cc:Work
         rdf:about="">
        <dc:format>image/svg+xml</dc:format>
        <dc:type
           rdf:resource="http://purl.org/dc/dcmitype/StillImage" />
        <dc:title>IDE65XX</dc:title>
        <dc:date>18.04.2020</dc:date>
        <dc:creator>
          <cc:Agent>
            <dc:title>emarti</dc:title>
          </cc:Agent>
        </dc:creator>
        <dc:publisher>
          <cc:Agent>
            <dc:title>emarti</dc:title>
          </cc:Agent>
        </dc:publisher>
        <dc:language>Turkish</dc:language>
        <cc:license
           rdf:resource="http://creativecommons.org/licenses/by-nc/4.0/" />
      </cc:Work>
      <cc:License
         rdf:about="http://creativecommons.org/licenses/by-nc/4.0/">
        <cc:permits
           rdf:resource="http://creativecommons.org/ns#Reproduction" />
        <cc:permits
           rdf:resource="http://creativecommons.org/ns#Distribution" />
        <cc:requires
           rdf:resource="http://creativecommons.org/ns#Notice" />
        <cc:requires
           rdf:resource="http://creativecommons.org/ns#Attribution" />
        <cc:prohibits
           rdf:resource="http://creativecommons.org/ns#CommercialUse" />
        <cc:permits
           rdf:resource="http://creativecommons.org/ns#DerivativeWorks" />
      </cc:License>
    </rdf:RDF>
    <rdf:RDF>
      <cc:Work
         rdf:about="">
        <dc:title />
      </cc:Work>
    </rdf:RDF>
  </metadata>
  <g
     inkscape:groupmode="layer"
     id="layer2"
     inkscape:label="base">
    <path
       style="fill:none;stroke:#000000;stroke-width:0.2;stroke-linecap:butt;stroke-linejoin:miter;stroke-miterlimit:4;stroke-dasharray:none;stroke-opacity:1"
       d="m 10,201 c 0,13.33233 0,26.66567 0,34.16573 0,7.50006 0,9.1666 0.834334,10.00043 C 11.668667,246 13.334333,246 27.493,246 c 14.158667,0 40.841333,0 55.007968,0 14.166636,0 15.833365,0 16.666199,-0.83334 C 100,244.33333 100,242.66567 100.83334,241.83283 101.66667,241 103.33433,241 105.0005,241 c 1.66617,0 3.33383,0 4.16666,0.83233 0.83284,0.83234 0.83284,2.5 1.66718,3.33383 C 111.66867,246 113.33433,246 118.33183,246 c 4.9975,0 13.33584,0 18.33574,0 4.9999,0 6.66676,0 7.49959,-0.83334 C 145,244.33333 145,242.66567 145.83333,241.83283 146.66667,241 148.33433,241 150.0005,241 c 1.66617,0 3.33383,0 4.16666,0.83233 0.83284,0.83234 0.83284,2.5 1.66717,3.33383 0.83434,0.83384 2.5,0.83384 4.16617,0.83384 1.66617,0 3.33383,0 15.82683,0 12.493,0 35.84034,0 48.3403,0 12.49997,0 14.1667,0 15.83287,0 1.66617,0 3.33383,0 4.16666,-0.83334 C 245,244.33333 245,242.66567 245,240.9995 c 0,-1.66617 0,-3.33383 0,-29.15217 0,-25.81833 0,-75.84833 0,-101.68165 0,-25.833313 0,-27.500013 0,-29.16618 0,-1.666167 0,-3.333833 -0.83234,-4.166667 C 243.33533,76 241.66767,76 240.33404,76 239.0004,76 238.001,76 237.5005,74.164333 237,72.328667 237,68.665667 237.33374,66.832833 237.66748,65 238.33433,65 239.33333,65 c 0.999,0 2.33434,0 3.33409,0 0.99975,0 1.66691,0 1.99974,-0.333334 C 245,64.333333 245,63.665667 245,62.167417 c 0,-1.49825 0,-3.835084 0,-8.500251 0,-4.665166 0,-11.668166 0,-19.000952 0,-7.332786 0,-15.000547 0,-19.167171 0,-4.166623 0,-4.833376 -0.66517,-5.166209 C 243.66967,10 242.33433,10 240.50013,10 c -1.83421,0 -4.1658,0 -27.17516,0 -23.00935,0 -66.6573,0 -95.99081,0 C 88.000656,10 73.001,10 59.000567,10 45.000134,10 32.001,10 24.334243,10 16.667487,10 14.334333,10 13.000929,10.166238 11.667524,10.332476 11.334333,10.665667 11.0005,10.9995 10.666667,11.333333 10.334333,11.665667 10.167167,14.507 10,17.348333 10,22.665667 10,29.833177 c 0,7.167511 0,16.165823 0,27.833285 0,11.667463 0,25.999205 0,40.499716 0,14.500512 0,29.166152 0,46.333492 0,17.16734 0,36.83266 0,56.50033"
       id="path848"
       inkscape:connector-curvature="0"
       inkscape:path-effect="#path-effect850"
       inkscape:original-d="m 10,201 c 10e-4,13.33233 10e-4,26.66567 0,40 10e-4,1.66579 10e-4,3.33233 0,5 1.668667,-0.001 3.334333,-0.001 5,0 26.651667,-0.001 53.334333,-0.001 80,0 1.667604,-0.001 3.334333,-0.001 5,0 0.001,-1.66667 0.001,-3.33433 0,-5 1.66667,-0.001 3.33433,-0.001 5,0 1.66667,-0.001 3.33433,-0.001 5,0 0.001,1.66467 0.001,3.33233 0,5 1.66867,-0.001 3.33433,-0.001 5,0 8.32933,-0.001 16.66767,-0.001 25,0 1.66747,-0.001 3.33433,-0.001 5,0 0.001,-1.66667 0.001,-3.33433 0,-5 1.66667,-0.001 3.33433,-0.001 5,0 1.66667,-0.001 3.33433,-0.001 5,0 0.001,1.66467 0.001,3.33233 0,5 1.66867,-0.001 3.33433,-0.001 5,0 1.66667,-0.001 3.33433,-0.001 5,0 23.32033,-0.001 46.66767,-0.001 70,0 1.6676,-0.001 3.33433,-0.001 5,0 1.66667,-0.001 3.33433,-0.001 5,0 0.001,-1.66667 0.001,-3.33433 0,-5 0.001,-1.66667 0.001,-3.33433 0,-5 0.001,-49.971 0.001,-100.001 0,-150 0.001,-1.667633 0.001,-3.334333 0,-5 0.001,-1.666667 0.001,-3.334333 0,-5 -1.66467,-0.001 -3.33233,-0.001 -5,0 -0.9996,-0.001 -1.999,-0.001 -3,0 0.001,-3.671333 0.001,-7.334333 0,-11 0.66748,-0.001 1.33433,-0.001 2,0 1.33233,-0.001 2.66767,-0.001 4,0 0.66717,-0.001 1.33433,-0.001 2,0 0.001,-0.666667 0.001,-1.334333 0,-2 0.001,-2.330833 0.001,-4.667667 0,-7 0.001,-6.998 0.001,-14.001 0,-21 0.001,-7.666572 0.001,-15.334333 0,-23 0.001,-0.66758 0.001,-1.334333 0,-2 -1.33033,-10e-4 -2.66567,-10e-4 -4,0 -2.33408,-10e-4 -4.66567,-10e-4 -7,0 C 190.31562,9.999 146.66767,9.999 103,10 88.000656,9.999 73.001,9.999 58,10 45.000134,9.999 32.001,9.999 19,10 16.667487,9.999 14.334333,9.999 12,10 c -0.332476,0.332476 -0.665667,0.665667 -1,1 -0.333333,0.333333 -0.665667,0.665667 -1,1 10e-4,5.348333 10e-4,10.665667 0,16 10e-4,9.000688 10e-4,17.999 0,27 10e-4,14.333925 10e-4,28.665667 0,43 10e-4,14.66669 10e-4,29.33233 0,44 10e-4,19.66701 10e-4,39.33233 0,59" />
    <circle
       style="opacity:1;fill:none;fill-opacity:1;fill-rule:nonzero;stroke:#000000;stroke-width:0.30000001;stroke-linecap:round;stroke-linejoin:round;stroke-miterlimit:4;stroke-dasharray:none;stroke-dashoffset:0;stroke-opacity:1;paint-order:stroke fill markers"
       id="path852"
       cx="127.875"
       cy="127.25"
       r="25.75" />
    <path
       style="opacity:1;fill:#4d4d4d;fill-opacity:1;fill-rule:nonzero;stroke:#000000;stroke-width:0.15000001;stroke-linecap:round;stroke-linejoin:round;stroke-miterlimit:4;stroke-dasharray:none;stroke-dashoffset:0;stroke-opacity:1;paint-order:stroke fill markers"
       d="m 11.324734,245.05603 c -0.663155,-0.41921 -0.75,-13.92832 -0.75,-116.66551 0,-97.746776 0.108934,-116.322647 0.686223,-117.018231 0.634715,-0.764778 9.406465,-0.82684 116.865473,-0.82684 h 116.17926 l 0.27296,1.125 c 0.15013,0.61875 0.21067,12.7125 0.13453,26.875001 l -0.13844,25.75 -3.33455,0.25 c -1.83399,0.1375 -3.51482,0.430825 -3.73517,0.65184 -0.67179,0.67382 -0.82478,7.145325 -0.21275,8.99978 0.59914,1.81541 1.52366,2.32257 4.28247,2.34921 3.2591,0.03145 2.9881,-7.23044 3.12005,83.60591 0.0959,65.99411 -0.008,82.89509 -0.51474,83.89326 l -0.63479,1.25 -42.73526,0.13753 c -23.50439,0.0756 -43.22403,0.0195 -43.82141,-0.12478 -0.68268,-0.16486 -1.29715,-0.90162 -1.65416,-1.98337 -0.69884,-2.11752 -2.9362,-3.00976 -6.65192,-2.65272 -2.57238,0.24717 -2.87288,0.47196 -4.45952,3.33591 l -0.85174,1.53743 h -15.48236 c -8.5153,0 -15.82738,-0.13239 -16.24907,-0.29421 -0.4217,-0.16182 -1.01572,-1.0487 -1.32005,-1.97085 -0.6832,-2.07011 -2.95342,-2.96225 -6.63726,-2.60828 -2.57238,0.24717 -2.87288,0.47196 -4.45952,3.33591 l -0.851745,1.53743 -43.148255,-0.008 c -26.319968,-0.005 -43.440764,-0.19257 -43.898256,-0.48177 z M 136.07474,151.99352 c 10.40407,-3.20706 17.76058,-13.43243 17.74406,-24.66382 -0.011,-7.44091 -2.3052,-13.07776 -7.44552,-18.29321 -18.52121,-18.79192 -49.84826,-1.28714 -43.77865,24.46243 3.46019,14.67946 18.64488,23.06757 33.48011,18.4946 z"
       id="path913"
       inkscape:connector-curvature="0" />
    <circle
       style="opacity:1;fill:none;fill-opacity:1;fill-rule:nonzero;stroke:#282828;stroke-width:9.338;stroke-linecap:round;stroke-linejoin:round;stroke-miterlimit:4;stroke-dasharray:none;stroke-dashoffset:0;stroke-opacity:1;paint-order:stroke fill markers"
       id="path915"
       cx="127.83841"
       cy="127.39146"
       r="29.711355" />
    <ellipse
       cy="127.49107"
       cx="127.94018"
       id="circle917"
       style="opacity:1;fill:none;fill-opacity:1;fill-rule:nonzero;stroke:#787878;stroke-width:1.11391127;stroke-linecap:round;stroke-linejoin:round;stroke-miterlimit:4;stroke-dasharray:none;stroke-dashoffset:0;stroke-opacity:1;paint-order:stroke fill markers"
       rx="26.047998"
       ry="25.957464" />
    <path
       style="fill:none;stroke:#000000;stroke-width:1.2;stroke-linecap:butt;stroke-linejoin:miter;stroke-opacity:1;stroke-miterlimit:4;stroke-dasharray:none"
       d="m 124.16737,230.16677 c 2.5003,0.83323 4.16696,0.83323 6.59944,0.0334 2.43247,-0.79982 5.90106,-2.53411 7.56712,-11.69798 1.66607,-9.16387 1.66607,-25.83653 -3e-4,-35.00255 -1.66636,-9.16602 -4.9999,-10.83278 -7.4997,-11.66622 -2.4998,-0.83343 -4.16626,-0.83343 -6.66716,1e-4 -2.5009,0.83354 -5.83224,2.4992 -7.4995,11.66867 -1.66727,9.16947 -1.66727,25.83013 -3e-4,34.99745 1.66696,9.16732 5.0001,10.83388 7.5004,11.66712 z"
       id="path919"
       inkscape:connector-curvature="0"
       inkscape:path-effect="#path-effect921"
       inkscape:original-d="m 125,231 c 1.66767,-0.001 3.33433,-0.001 5,0 3.37398,-1.25025 6.66767,-3.33433 10,-5 0.001,-16.66167 0.001,-33.33433 0,-50 -3.33213,-1.66757 -6.66567,-3.33433 -10,-5 -1.66587,-0.001 -3.33233,-0.001 -5,0 -3.33433,1.66667 -6.66567,3.33233 -10,5 0.001,16.67167 0.001,33.33233 0,50 3.33453,1.66577 6.66767,3.33233 10,5 z" />
    <path
       style="opacity:1;fill:#282828;fill-opacity:1;fill-rule:nonzero;stroke:none;stroke-width:0.01767767;stroke-linecap:round;stroke-linejoin:round;stroke-miterlimit:4;stroke-dasharray:none;stroke-dashoffset:0;stroke-opacity:1;paint-order:stroke fill markers"
       d="m 125.70536,230.44905 c -2.16647,-0.46909 -3.75222,-1.26226 -4.94828,-2.47505 -2.11338,-2.14294 -3.54714,-6.08158 -4.32812,-11.88972 -1.25667,-9.34576 -1.1393,-23.46815 0.26518,-31.9082 0.91061,-5.47221 2.55033,-9.12359 4.88552,-10.87921 1.00682,-0.75694 2.57693,-1.42045 4.17727,-1.76527 0.84096,-0.1812 2.50977,-0.20682 3.26299,-0.0501 0.85397,0.17769 2.2484,0.62374 2.92759,0.93646 4.08391,1.88039 6.15815,7.0273 7.05397,17.50335 0.319,3.73063 0.35988,4.99043 0.35988,11.09273 0,6.28589 -0.0422,7.49585 -0.40245,11.53468 -0.87442,9.80364 -2.90802,14.91912 -6.7077,16.87305 -2.09816,1.07895 -4.53844,1.46191 -6.54585,1.02726 z"
       id="path925"
       inkscape:connector-curvature="0" />
    <circle
       style="opacity:1;fill:#282828;fill-opacity:1;fill-rule:nonzero;stroke:#000000;stroke-width:1.295;stroke-linecap:round;stroke-linejoin:round;stroke-miterlimit:4;stroke-dasharray:none;stroke-dashoffset:0;stroke-opacity:1;paint-order:stroke fill markers"
       id="path927"
       cx="170.8125"
       cy="141.3125"
       r="5.890244" />
    <rect
       style="opacity:1;fill:#ffffff;fill-opacity:1;fill-rule:nonzero;stroke:none;stroke-width:1.20000005;stroke-linecap:round;stroke-linejoin:round;stroke-miterlimit:4;stroke-dasharray:none;stroke-dashoffset:0;stroke-opacity:1;paint-order:stroke fill markers"
       id="rect929"
       width="200"
       height="50"
       x="20"
       y="21" />
    <g
       id="g937">
      <path
         inkscape:connector-curvature="0"
         id="path931"
         d="M 20.00212,46.030921 V 21.15592 h 100 100 v 24.875001 24.875 h -100 -100 z"
         style="opacity:1;fill:#ffffff;fill-opacity:1;fill-rule:nonzero;stroke:none;stroke-width:0.30000001;stroke-linecap:round;stroke-linejoin:round;stroke-miterlimit:4;stroke-dasharray:none;stroke-dashoffset:0;stroke-opacity:1;paint-order:stroke fill markers" />
      <path
         style="opacity:1;fill:#cccccc;fill-opacity:1;fill-rule:nonzero;stroke:none;stroke-width:0.16421172;stroke-linecap:round;stroke-linejoin:round;stroke-miterlimit:4;stroke-dasharray:none;stroke-dashoffset:0;stroke-opacity:1;paint-order:stroke fill markers"
         d="M 20.00212,63.452961 V 56 h 100 100 v 7.452961 7.45296 h -100 -100 z"
         id="path933"
         inkscape:connector-curvature="0" />
    </g>
  </g>
  <g
     inkscape:groupmode="layer"
     id="layer3"
     inkscape:label="text">
    <g
       aria-label="IDE 65XX"
       style="font-style:normal;font-variant:normal;font-weight:normal;font-stretch:normal;font-size:8px;line-height:1.25;font-family:'Ubuntu Condensed';-inkscape-font-specification:'Ubuntu Condensed, ';letter-spacing:0px;word-spacing:0px;fill:#000000;fill-opacity:1;stroke:none"
       id="text942">
      <path
         d="m 25.62602,50.01561 v -3.808 h 5.039999 V 30.714277 H 25.62602 v -3.808 h 14.671999 v 3.808 H 35.295353 V 46.20761 h 5.002666 v 3.808 z"
         style="font-style:normal;font-variant:normal;font-weight:bold;font-stretch:normal;font-size:37.33333206px;font-family:'Ubuntu Mono';-inkscape-font-specification:'Ubuntu Mono Bold'"
         id="path948" />
      <path
         d="m 48.884685,46.282277 q 0.186667,0.03733 0.410667,0.03733 0.224,0 0.410667,0 1.568,0 2.613333,-0.597333 1.082667,-0.597334 1.717333,-1.642667 0.672,-1.045333 0.933334,-2.464 0.298666,-1.456 0.298666,-3.173333 0,-1.493333 -0.224,-2.912 -0.224,-1.418667 -0.784,-2.501333 -0.56,-1.082667 -1.530666,-1.717334 -0.970667,-0.672 -2.501334,-0.672 -0.298666,0 -0.672,0.03733 -0.373333,0 -0.672,0.07467 z m 11.050667,-7.84 q 0,3.210666 -0.821334,5.488 -0.783999,2.24 -2.202666,3.658666 -1.418667,1.418667 -3.397333,2.090667 -1.941334,0.634666 -4.293334,0.634666 -1.231999,0 -2.426666,-0.149333 -1.157333,-0.112 -2.501333,-0.410667 V 27.204944 q 1.568,-0.336 2.949333,-0.448 1.381333,-0.112 2.576,-0.112 2.277333,0 4.144,0.672 1.904,0.672 3.210666,2.128 1.306667,1.418666 2.016,3.658666 0.746667,2.202667 0.746667,5.338667 z"
         style="font-style:normal;font-variant:normal;font-weight:bold;font-stretch:normal;font-size:37.33333206px;font-family:'Ubuntu Mono';-inkscape-font-specification:'Ubuntu Mono Bold'"
         id="path950" />
      <path
         d="M 63.295352,50.01561 V 26.906277 h 13.999999 v 3.808 h -9.407999 v 5.189333 h 8.175999 v 3.808 h -8.175999 v 6.496 h 10.229332 v 3.808 z"
         style="font-style:normal;font-variant:normal;font-weight:bold;font-stretch:normal;font-size:37.33333206px;font-family:'Ubuntu Mono';-inkscape-font-specification:'Ubuntu Mono Bold'"
         id="path952" />
      <path
         d="m 107.27402,39.03961 q -0.70934,0 -1.456,0.149333 -0.74667,0.149334 -1.232,0.410667 -0.0373,0.336 -0.0747,0.672 0,0.336 0,0.709333 0,1.082667 0.14933,2.090667 0.14934,0.970667 0.52267,1.754667 0.37333,0.784 1.008,1.269333 0.672,0.448 1.64267,0.448 0.784,0 1.344,-0.373333 0.56,-0.373334 0.896,-0.933334 0.37333,-0.56 0.52266,-1.232 0.18667,-0.672 0.18667,-1.306666 0,-1.754667 -0.784,-2.688 -0.784,-0.970667 -2.72533,-0.970667 z m 0.59733,-3.808 q 2.016,0 3.39733,0.597334 1.41867,0.597333 2.31467,1.605333 0.896,1.008 1.26933,2.352 0.41067,1.344 0.41067,2.837333 0,1.344 -0.448,2.725333 -0.41067,1.381334 -1.30667,2.538667 -0.896,1.157333 -2.27733,1.904 -1.38133,0.709333 -3.28533,0.709333 -3.88267,0 -5.936,-2.389333 -2.016003,-2.426667 -2.016003,-7.541333 0,-3.36 0.970663,-5.936 1.008,-2.576 2.83734,-4.330667 1.82933,-1.754666 4.40533,-2.650666 2.576,-0.896 5.712,-0.896 l 0.26133,3.92 q -1.49333,0.03733 -2.912,0.298666 -1.41866,0.261334 -2.61333,0.896 -1.19467,0.597334 -2.09067,1.568 -0.85866,0.970667 -1.26933,2.426667 0.70933,-0.298667 1.38133,-0.448 0.672,-0.186667 1.19467,-0.186667 z"
         style="font-style:normal;font-variant:normal;font-weight:bold;font-stretch:normal;font-size:37.33333206px;font-family:'Ubuntu Mono';-inkscape-font-specification:'Ubuntu Mono Bold'"
         id="path954" />
      <path
         d="m 128.92735,43.220943 q 0,-0.970666 -0.336,-1.754666 -0.29867,-0.821334 -1.26934,-1.381334 -0.93333,-0.597333 -2.688,-0.896 -1.75466,-0.336 -4.592,-0.336 0.37334,-3.135999 0.59734,-6.122666 0.224,-3.024 0.336,-5.824 h 11.79733 v 3.808 h -7.952 q -0.0747,1.194667 -0.18667,2.501333 -0.112,1.306667 -0.18666,2.128 4.62933,0.298667 6.90666,2.24 2.27734,1.941333 2.27734,5.450667 0,1.605333 -0.56,2.986666 -0.56,1.344 -1.71734,2.352 -1.15733,1.008 -2.87466,1.568 -1.71734,0.56 -3.99467,0.56 -0.896,0 -1.82933,-0.112 -0.93334,-0.112 -1.792,-0.298667 -0.85867,-0.149333 -1.568,-0.373333 -0.672,-0.224 -1.04534,-0.410667 l 0.93334,-3.807999 q 0.82133,0.410666 2.09066,0.746666 1.26934,0.336 3.17334,0.336 1.344,0 2.20266,-0.298666 0.896,-0.298667 1.38134,-0.746667 0.52266,-0.485333 0.70933,-1.082667 0.18667,-0.597333 0.18667,-1.232 z"
         style="font-style:normal;font-variant:normal;font-weight:bold;font-stretch:normal;font-size:37.33333206px;font-family:'Ubuntu Mono';-inkscape-font-specification:'Ubuntu Mono Bold'"
         id="path956" />
      <path
         d="m 148.90069,50.01561 q -0.70934,-1.904 -1.75467,-4.218667 -1.008,-2.314666 -2.128,-4.629333 -1.08267,2.202667 -2.16533,4.592 -1.08267,2.352 -1.86667,4.256 h -4.96533 q 0.37333,-1.008 1.08266,-2.426667 0.74667,-1.418666 1.60534,-3.061333 0.896,-1.642667 1.86666,-3.36 0.97067,-1.754667 1.86667,-3.36 l -6.048,-10.901333 h 4.96533 l 3.65867,7.392 3.84533,-7.392 h 4.62934 l -5.89867,10.789333 q 1.008,1.605333 1.97867,3.36 0.97066,1.754667 1.792,3.434667 0.85866,1.642666 1.49333,3.098666 0.63467,1.418667 1.008,2.426667 z"
         style="font-style:normal;font-variant:normal;font-weight:bold;font-stretch:normal;font-size:37.33333206px;font-family:'Ubuntu Mono';-inkscape-font-specification:'Ubuntu Mono Bold'"
         id="path958" />
      <path
         d="m 167.56734,50.01561 q -0.70933,-1.904 -1.75466,-4.218667 -1.008,-2.314666 -2.128,-4.629333 -1.08267,2.202667 -2.16534,4.592 -1.08266,2.352 -1.86666,4.256 h -4.96534 q 0.37334,-1.008 1.08267,-2.426667 0.74667,-1.418666 1.60533,-3.061333 0.896,-1.642667 1.86667,-3.36 0.97067,-1.754667 1.86667,-3.36 l -6.048,-10.901333 h 4.96533 l 3.65867,7.392 3.84533,-7.392 h 4.62933 l -5.89866,10.789333 q 1.008,1.605333 1.97866,3.36 0.97067,1.754667 1.792,3.434667 0.85867,1.642666 1.49334,3.098666 0.63466,1.418667 1.008,2.426667 z"
         style="font-style:normal;font-variant:normal;font-weight:bold;font-stretch:normal;font-size:37.33333206px;font-family:'Ubuntu Mono';-inkscape-font-specification:'Ubuntu Mono Bold'"
         id="path960" />
    </g>
    <g
       aria-label="Kick Assembler Edition "
       style="font-style:normal;font-variant:normal;font-weight:normal;font-stretch:normal;font-size:8px;line-height:1.25;font-family:'Ubuntu Condensed';-inkscape-font-specification:'Ubuntu Condensed, ';letter-spacing:0px;word-spacing:0px;fill:#000000;fill-opacity:1;stroke:none"
       id="text946">
      <path
         d="m 29.513395,59.668661 q -0.234667,0.362667 -0.533334,0.8 -0.288,0.437333 -0.597333,0.906667 -0.309333,0.458666 -0.629333,0.906667 -0.309334,0.448 -0.597334,0.832 0.32,0.32 0.693334,0.810666 0.373333,0.48 0.736,1.024 0.362666,0.533334 0.682666,1.088 0.32,0.554667 0.512,1.024 h -1.077333 q -0.224,-0.490666 -0.522667,-1.002666 -0.288,-0.512 -0.618666,-0.981334 -0.32,-0.48 -0.661334,-0.885333 -0.330666,-0.405333 -0.650666,-0.682667 v 3.552 h -0.960001 v -7.392 h 0.960001 v 3.264 q 0.277333,-0.352 0.586666,-0.8 0.309334,-0.448 0.608,-0.896 0.309334,-0.448 0.576,-0.853333 0.266667,-0.416 0.448,-0.714667 z"
         style="font-size:10.66666698px"
         id="path963" />
      <path
         d="m 31.642728,67.060661 h -0.917334 v -5.6 h 0.917334 z m -0.458667,-6.592 q -0.245333,0 -0.426667,-0.16 -0.170666,-0.170667 -0.170666,-0.448 0,-0.277333 0.170666,-0.437333 0.181334,-0.170667 0.426667,-0.170667 0.245334,0 0.416,0.170667 0.181334,0.16 0.181334,0.437333 0,0.277333 -0.181334,0.448 -0.170666,0.16 -0.416,0.16 z"
         style="font-size:10.66666698px"
         id="path965" />
      <path
         d="m 35.015395,67.199328 q -0.576,0 -0.96,-0.224 -0.384,-0.224 -0.629333,-0.608 -0.234667,-0.394667 -0.341334,-0.928 -0.096,-0.533333 -0.096,-1.162667 0,-1.386666 0.501334,-2.165333 0.512,-0.789334 1.536,-0.789334 0.309333,0 0.554667,0.07467 0.245333,0.07467 0.458666,0.192 l -0.234666,0.757334 q -0.330667,-0.213334 -0.736,-0.213334 -0.576001,0 -0.853334,0.522667 -0.266667,0.522667 -0.266667,1.621333 0,0.458667 0.05333,0.853334 0.05333,0.384 0.181333,0.661333 0.138667,0.277333 0.352,0.437333 0.224,0.16 0.565334,0.16 0.234666,0 0.416,-0.05333 0.192,-0.064 0.362666,-0.16 l 0.202667,0.714667 q -0.170667,0.117333 -0.458667,0.213333 -0.277333,0.096 -0.608,0.096 z"
         style="font-size:10.66666698px"
         id="path967" />
      <path
         d="m 40.546228,61.460661 q -0.448,0.768 -0.864,1.408 -0.405333,0.629334 -0.810666,1.184 0.256,0.298667 0.522666,0.672 0.266667,0.373334 0.512,0.778667 0.245334,0.394667 0.458667,0.8 0.213333,0.394667 0.362667,0.757333 h -1.002667 q -0.16,-0.352 -0.373333,-0.736 -0.213334,-0.384 -0.448,-0.746666 -0.234667,-0.373334 -0.469334,-0.704 -0.234666,-0.330667 -0.437333,-0.554667 v 2.741333 h -0.917334 v -8.117333 l 0.917334,-0.16 v 5.088 q 0.192,-0.256 0.405333,-0.576 0.224,-0.32 0.437334,-0.64 0.213333,-0.330667 0.405333,-0.64 0.192,-0.309334 0.32,-0.554667 z"
         style="font-size:10.66666698px"
         id="path969" />
      <path
         d="m 46.082728,59.668661 q 0.256,0.8 0.501333,1.621333 0.256,0.810667 0.490667,1.706667 0.245333,0.896 0.48,1.898667 0.245333,1.002667 0.490667,2.165333 h -0.96 q -0.08533,-0.48 -0.181334,-0.949333 -0.08533,-0.469333 -0.181333,-0.938667 h -2.325333 q -0.106667,0.469334 -0.192,0.938667 -0.08533,0.469333 -0.170667,0.949333 h -0.928 q 0.234666,-1.162666 0.48,-2.165333 0.245333,-1.002667 0.48,-1.898667 0.245333,-0.896 0.490667,-1.706667 0.256,-0.821333 0.512,-1.621333 z m -0.522667,1.088 q -0.266666,0.885333 -0.512,1.781334 -0.245333,0.896 -0.469333,1.834666 h 1.952 q -0.213333,-0.938666 -0.458667,-1.834666 -0.245333,-0.896001 -0.512,-1.781334 z"
         style="font-size:10.66666698px"
         id="path971" />
      <path
         d="m 49.983229,66.409995 q 0.405333,0 0.608,-0.224 0.213333,-0.234667 0.213333,-0.608 0,-0.234667 -0.08533,-0.394667 -0.08533,-0.170667 -0.224,-0.298667 -0.138667,-0.128 -0.32,-0.224 -0.181333,-0.106666 -0.362667,-0.224 -0.181333,-0.106666 -0.352,-0.245333 -0.170666,-0.149333 -0.309333,-0.330667 -0.128,-0.192 -0.213333,-0.426666 -0.07467,-0.245334 -0.07467,-0.565334 0,-0.693333 0.426667,-1.12 0.437333,-0.426667 1.173333,-0.426667 0.309333,0 0.586667,0.08533 0.277333,0.07467 0.458667,0.170666 l -0.202667,0.736001 q -0.192,-0.106667 -0.384,-0.16 -0.192,-0.05333 -0.416,-0.05333 -0.341334,0 -0.544,0.202667 -0.202667,0.192 -0.202667,0.565333 0,0.213334 0.07467,0.373334 0.07467,0.149333 0.192,0.277333 0.128,0.117333 0.277333,0.224 0.16,0.106667 0.330667,0.202667 0.202666,0.117333 0.394666,0.256 0.202667,0.138666 0.352,0.330666 0.160001,0.181334 0.256001,0.437334 0.096,0.245333 0.096,0.597333 0,0.736 -0.437334,1.184 -0.426667,0.448 -1.258667,0.448 -0.426666,0 -0.768,-0.117333 -0.341333,-0.117334 -0.512,-0.213334 l 0.192,-0.757333 q 0.16,0.08533 0.426667,0.192 0.277333,0.106667 0.608,0.106667 z"
         style="font-size:10.66666698px"
         id="path973" />
      <path
         d="m 53.629061,66.409995 q 0.405334,0 0.608,-0.224 0.213334,-0.234667 0.213334,-0.608 0,-0.234667 -0.08533,-0.394667 -0.08533,-0.170667 -0.224,-0.298667 -0.138666,-0.128 -0.32,-0.224 -0.181333,-0.106666 -0.362666,-0.224 -0.181334,-0.106666 -0.352,-0.245333 -0.170667,-0.149333 -0.309334,-0.330667 -0.128,-0.192 -0.213333,-0.426666 -0.07467,-0.245334 -0.07467,-0.565334 0,-0.693333 0.426667,-1.12 0.437333,-0.426667 1.173333,-0.426667 0.309334,0 0.586667,0.08533 0.277333,0.07467 0.458667,0.170666 l -0.202667,0.736001 q -0.192,-0.106667 -0.384,-0.16 -0.192,-0.05333 -0.416,-0.05333 -0.341333,0 -0.544,0.202667 -0.202667,0.192 -0.202667,0.565333 0,0.213334 0.07467,0.373334 0.07467,0.149333 0.192,0.277333 0.128,0.117333 0.277333,0.224 0.16,0.106667 0.330667,0.202667 0.202667,0.117333 0.394667,0.256 0.202666,0.138666 0.352,0.330666 0.16,0.181334 0.256,0.437334 0.096,0.245333 0.096,0.597333 0,0.736 -0.437334,1.184 -0.426666,0.448 -1.258666,0.448 -0.426667,0 -0.768001,-0.117333 -0.341333,-0.117334 -0.512,-0.213334 l 0.192,-0.757333 q 0.16,0.08533 0.426667,0.192 0.277334,0.106667 0.608,0.106667 z"
         style="font-size:10.66666698px"
         id="path975" />
      <path
         d="m 57.125562,64.532661 q 0.01067,0.405334 0.07467,0.746667 0.064,0.330667 0.202667,0.586667 0.149333,0.245333 0.384,0.384 0.245334,0.138666 0.618667,0.138666 0.309333,0 0.565333,-0.08533 0.266667,-0.096 0.384,-0.16 l 0.170667,0.736 q -0.138667,0.096 -0.469333,0.202667 -0.32,0.117333 -0.768,0.117333 -0.586667,0 -0.992001,-0.213333 -0.394666,-0.213334 -0.650666,-0.597334 -0.245334,-0.384 -0.352,-0.917333 -0.106667,-0.533333 -0.106667,-1.173333 0,-1.546667 0.512,-2.261334 0.512,-0.714667 1.354667,-0.714667 0.949333,0 1.344,0.714667 0.394667,0.714667 0.394667,2.005334 0,0.117333 0,0.245333 0,0.117333 -0.01067,0.245333 z m 0.928,-2.432 q -0.458667,0 -0.672,0.458667 -0.202667,0.458667 -0.245334,1.226667 h 1.696001 q 0,-0.778667 -0.16,-1.226667 -0.16,-0.458667 -0.618667,-0.458667 z"
         style="font-size:10.66666698px"
         id="path977" />
      <path
         d="m 61.142062,61.620661 q 0.373334,-0.117333 0.810667,-0.192 0.437333,-0.08533 0.8,-0.08533 0.373333,0 0.672,0.096 0.309334,0.096 0.544,0.32 0.277334,-0.181334 0.597334,-0.298667 0.32,-0.117333 0.704,-0.117333 0.384,0 0.693333,0.117333 0.32,0.106667 0.544,0.373333 0.224,0.266667 0.352,0.725334 0.128,0.448 0.128,1.12 v 3.381333 h -0.917333 v -3.306666 q 0,-0.832 -0.192,-1.216 -0.192,-0.384 -0.725334,-0.384 -0.202666,0 -0.416,0.07467 -0.202666,0.07467 -0.384,0.202667 0.08533,0.245333 0.128,0.554667 0.04267,0.309333 0.04267,0.693333 v 3.381333 h -0.917333 v -3.306666 q 0,-0.832 -0.192,-1.216 -0.192001,-0.384 -0.725334,-0.384 -0.277333,0 -0.629333,0.106666 v 4.8 h -0.917334 z"
         style="font-size:10.66666698px"
         id="path979" />
      <path
         d="m 69.486229,66.313995 q 0.149333,0.04267 0.288,0.064 0.138667,0.01067 0.256,0.01067 0.618667,0 0.917334,-0.490666 0.309333,-0.501334 0.309333,-1.653334 0,-0.597333 -0.07467,-1.002666 -0.07467,-0.405334 -0.224,-0.650667 -0.138666,-0.245333 -0.341333,-0.352 -0.202667,-0.106667 -0.469334,-0.106667 -0.352,0 -0.661333,0.170667 z m 0,-4.810667 q 0.170667,-0.08533 0.341333,-0.128 0.181334,-0.05333 0.426667,-0.05333 0.522667,0 0.896,0.213334 0.373334,0.202666 0.608,0.586667 0.234667,0.373333 0.341334,0.917333 0.117333,0.533333 0.117333,1.205333 0,1.482667 -0.533333,2.218667 -0.522667,0.736 -1.653334,0.736 -0.394667,0 -0.778667,-0.08533 -0.384,-0.07467 -0.682666,-0.202667 v -7.968 l 0.917333,-0.16 z"
         style="font-size:10.66666698px"
         id="path981" />
      <path
         d="m 75.009397,67.167328 q -0.789333,-0.02133 -1.130667,-0.384 -0.341333,-0.373333 -0.341333,-1.173333 v -6.666667 l 0.917333,-0.16 v 6.848 q 0,0.373333 0.149334,0.544 0.149333,0.16 0.522666,0.224 z"
         style="font-size:10.66666698px"
         id="path983" />
      <path
         d="m 76.771396,64.532661 q 0.01067,0.405334 0.07467,0.746667 0.064,0.330667 0.202667,0.586667 0.149333,0.245333 0.384,0.384 0.245333,0.138666 0.618667,0.138666 0.309333,0 0.565333,-0.08533 0.266667,-0.096 0.384,-0.16 l 0.170667,0.736 q -0.138667,0.096 -0.469333,0.202667 -0.32,0.117333 -0.768001,0.117333 -0.586666,0 -0.992,-0.213333 -0.394666,-0.213334 -0.650666,-0.597334 -0.245334,-0.384 -0.352,-0.917333 -0.106667,-0.533333 -0.106667,-1.173333 0,-1.546667 0.512,-2.261334 0.512,-0.714667 1.354667,-0.714667 0.949333,0 1.344,0.714667 0.394667,0.714667 0.394667,2.005334 0,0.117333 0,0.245333 0,0.117333 -0.01067,0.245333 z m 0.928,-2.432 q -0.458667,0 -0.672,0.458667 -0.202667,0.458667 -0.245334,1.226667 h 1.696001 q 0,-0.778667 -0.160001,-1.226667 -0.16,-0.458667 -0.618666,-0.458667 z"
         style="font-size:10.66666698px"
         id="path985" />
      <path
         d="m 83.209228,62.292661 q -0.341333,-0.149333 -0.768,-0.149333 -0.394667,0 -0.736,0.138667 v 4.778666 h -0.917334 v -5.354667 q 0.309334,-0.149333 0.704001,-0.245333 0.405333,-0.106667 0.885333,-0.106667 0.256,0 0.512,0.032 0.256,0.032 0.48,0.117334 z"
         style="font-size:10.66666698px"
         id="path987" />
      <path
         d="m 86.43523,67.060661 v -7.392 h 3.317334 v 0.821333 H 87.39523 v 2.293334 h 2.133334 v 0.8 H 87.39523 v 2.656 h 2.528 v 0.821333 z"
         style="font-size:10.66666698px"
         id="path989" />
      <path
         d="m 93.636061,62.303328 q -0.309333,-0.170667 -0.661333,-0.170667 -0.266667,0 -0.469333,0.106667 -0.202667,0.106667 -0.352,0.352 -0.138667,0.245333 -0.213334,0.650667 -0.07467,0.405333 -0.07467,1.002666 0,1.152 0.298666,1.653334 0.309334,0.490666 0.928,0.490666 0.117334,0 0.256,-0.01067 0.138667,-0.02133 0.288,-0.064 z m 0,-3.36 0.917334,-0.16 v 8.128 q -0.298667,0.128 -0.682667,0.202667 -0.384,0.08533 -0.778667,0.08533 -1.152,0 -1.674666,-0.736 -0.512001,-0.736 -0.512001,-2.218667 0,-0.672 0.106667,-1.205333 0.117333,-0.544 0.352,-0.917333 0.245334,-0.384001 0.618667,-0.586667 0.373333,-0.213334 0.885333,-0.213334 0.245334,0 0.416,0.05333 0.181334,0.04267 0.352,0.128 z"
         style="font-size:10.66666698px"
         id="path991" />
      <path
         d="m 97.1219,67.060661 h -0.917334 v -5.6 H 97.1219 Z m -0.458667,-6.592 q -0.245333,0 -0.426667,-0.16 -0.170666,-0.170667 -0.170666,-0.448 0,-0.277333 0.170666,-0.437333 0.181334,-0.170667 0.426667,-0.170667 0.245333,0 0.416,0.170667 0.181333,0.16 0.181333,0.437333 0,0.277333 -0.181333,0.448 -0.170667,0.16 -0.416,0.16 z"
         style="font-size:10.66666698px"
         id="path993" />
      <path
         d="m 99.641228,61.460661 h 1.408002 v 0.789334 h -1.408002 v 3.082666 q 0,0.576 0.202667,0.810667 0.213335,0.224 0.565335,0.224 0.18133,0 0.34133,-0.05333 0.17067,-0.05333 0.288,-0.128 l 0.18133,0.736 q -0.43733,0.256 -0.928,0.256 -0.789329,0 -1.183995,-0.437334 -0.384001,-0.448 -0.384001,-1.472 v -5.312 l 0.917334,-0.16 z"
         style="font-size:10.66666698px"
         id="path995" />
      <path
         d="m 103.1219,67.060661 h -0.91733 v -5.6 h 0.91733 z m -0.45867,-6.592 q -0.24533,0 -0.42666,-0.16 -0.17067,-0.170667 -0.17067,-0.448 0,-0.277333 0.17067,-0.437333 0.18133,-0.170667 0.42666,-0.170667 0.24534,0 0.416,0.170667 0.18134,0.16 0.18134,0.437333 0,0.277333 -0.18134,0.448 -0.17066,0.16 -0.416,0.16 z"
         style="font-size:10.66666698px"
         id="path997" />
      <path
         d="m 108.38256,64.265995 q 0,0.661333 -0.11733,1.205333 -0.11734,0.533333 -0.36267,0.917333 -0.23467,0.384 -0.608,0.597334 -0.36267,0.213333 -0.864,0.213333 -0.50133,0 -0.87467,-0.213333 -0.37333,-0.213334 -0.61866,-0.597334 -0.23467,-0.384 -0.352,-0.917333 -0.11734,-0.544 -0.11734,-1.205333 0,-0.650667 0.11734,-1.194667 0.11733,-0.544 0.352,-0.928 0.24533,-0.394667 0.61866,-0.608 0.37334,-0.213334 0.87467,-0.213334 0.50133,0 0.864,0.213334 0.37333,0.213333 0.608,0.608 0.24533,0.384 0.36267,0.928 0.11733,0.544 0.11733,1.194667 z m -0.96,0 q 0,-0.469334 -0.0533,-0.853334 -0.0533,-0.394666 -0.17067,-0.672 -0.11733,-0.288 -0.30933,-0.437333 -0.192,-0.16 -0.45867,-0.16 -0.27733,0 -0.46933,0.16 -0.18134,0.149333 -0.30934,0.437333 -0.11733,0.277334 -0.17066,0.672 -0.0533,0.384 -0.0533,0.853334 0,0.469333 0.0533,0.864 0.0533,0.384 0.17066,0.661333 0.128,0.277333 0.30934,0.437333 0.192,0.149334 0.46933,0.149334 0.26667,0 0.45867,-0.149334 0.192,-0.16 0.30933,-0.437333 0.11733,-0.277333 0.17067,-0.661333 0.0533,-0.394667 0.0533,-0.864 z"
         style="font-size:10.66666698px"
         id="path999" />
      <path
         d="m 109.72539,61.620661 q 0.39467,-0.117333 0.85334,-0.192 0.45866,-0.08533 0.84266,-0.08533 0.416,0 0.75734,0.117333 0.34133,0.106667 0.576,0.373333 0.24533,0.266667 0.37333,0.725334 0.13867,0.448 0.13867,1.12 v 3.381333 h -0.91734 v -3.306666 q 0,-0.832 -0.21333,-1.216 -0.21333,-0.384 -0.8,-0.384 -0.30933,0 -0.69333,0.106666 v 4.8 h -0.91734 z"
         style="font-size:10.66666698px"
         id="path1001" />
    </g>
  </g>
</svg>
